<svg xmlns="http://www.w3.org/2000/svg" width="48" height="48" viewBox="0 0 48 48">
    <path fill="#FB8C00" fill-rule="evenodd" d="M24.023 3.003c-1.282 0-2.549.242-3.8.727a14.064 14.064 0 0 0-3.378 1.854c-1.001.75-1.807 1.564-2.417 2.44-.61.875-.915 1.704-.915 2.486v7.508c0 1.47.368 3.347 1.103 5.63.735 2.284 1.884 4.05 3.449 5.302.406.313.711.712.914 1.197.204.484.274.993.212 1.525a3.5 3.5 0 0 1-.587 1.384c-.297.422-.68.743-1.15.962L4.27 40.258c-.188.063-.446.211-.774.446-.329.234-.493.665-.493 1.29v3.05l41.994-.047v-2.909c0-.813-.195-1.322-.586-1.525-.391-.203-.603-.305-.634-.305l-13.09-6.193a3.04 3.04 0 0 1-1.174-.962 2.94 2.94 0 0 1-.563-1.431 2.978 2.978 0 0 1 .211-1.525c.204-.485.509-.884.915-1.197 1.627-1.251 2.776-3.026 3.449-5.325.672-2.3 1.009-4.168 1.009-5.607V10.51c0-.813-.313-1.658-.939-2.533-.625-.876-1.43-1.682-2.416-2.417-.985-.735-2.112-1.345-3.378-1.83-1.267-.485-2.526-.727-3.778-.727zm0-3.003c1.658 0 3.293.313 4.904.938 1.61.626 3.05 1.44 4.316 2.44 1.267 1.001 2.3 2.127 3.097 3.379.798 1.25 1.197 2.502 1.197 3.753v7.508c0 .907-.094 1.955-.282 3.143-.188 1.189-.5 2.401-.938 3.637a17.877 17.877 0 0 1-1.736 3.566 11.514 11.514 0 0 1-2.628 2.932l13.091 6.24 1.478.822c.985.547 1.478 1.259 1.478 2.135v4.551c0 .813-.29 1.51-.868 2.088a2.847 2.847 0 0 1-2.088.868H3.003c-.845 0-1.556-.29-2.135-.868A2.847 2.847 0 0 1 0 45.044v-4.551c0-.814.5-1.51 1.501-2.088l1.502-.868 13.185-6.24a11.386 11.386 0 0 1-2.675-3.05 20.985 20.985 0 0 1-1.76-3.637 19.379 19.379 0 0 1-.961-3.613c-.188-1.173-.282-2.166-.282-2.98V10.51c0-1.251.391-2.502 1.173-3.753.782-1.252 1.807-2.378 3.074-3.379 1.266-1 2.713-1.814 4.34-2.44C20.723.313 22.366 0 24.023 0z"/>
</svg>
