<svg xmlns="http://www.w3.org/2000/svg" width="67" height="52" viewBox="0 0 67 52">
    <g fill="none" fill-rule="evenodd">
        <path fill="#D0D0D0" d="M9.866 41.12l-6.731 1.445 1.918-5.856A22.407 22.407 0 0 1 0 22.5C0 10.074 10.074 0 22.5 0S45 10.074 45 22.5 34.926 45 22.5 45c-4.683 0-9.033-1.43-12.634-3.88z"/>
        <circle cx="32" cy="20" r="3" fill="#FAFAFA"/>
        <circle cx="14" cy="20" r="3" fill="#FAFAFA"/>
        <path stroke="#FFF" stroke-linecap="round" stroke-width="3.033" d="M18 30.5h8"/>
        <path fill="#AAA" d="M42.419 38.895a25.2 25.2 0 0 0 1.503-2.053h2.536a.551.551 0 0 0 .564-.553v-3.315a.551.551 0 0 0-.564-.553h-.227A24.537 24.537 0 0 0 47.534 28h16.678C65.745 28 67 29.227 67 30.727v18.546c0 1.5-1.255 2.727-2.788 2.727H40.788C39.255 52 38 50.773 38 49.273v-6.116a25.617 25.617 0 0 0 2.256-1.919v1.525c0 .311.246.553.563.553h5.64a.551.551 0 0 0 .563-.553v-3.316a.551.551 0 0 0-.564-.552h-4.04zm4.603 10.342V45.92a.551.551 0 0 0-.564-.553H40.82a.551.551 0 0 0-.563.553v3.316c0 .31.246.552.563.552h5.64a.551.551 0 0 0 .563-.552zm8.861 0V45.92a.551.551 0 0 0-.564-.553h-5.638a.551.551 0 0 0-.564.553v3.316c0 .31.246.552.564.552h5.638a.551.551 0 0 0 .564-.552zm0-6.474v-3.316a.551.551 0 0 0-.564-.552h-5.638a.551.551 0 0 0-.564.552v3.316c0 .311.246.553.564.553h5.638a.551.551 0 0 0 .564-.553zm9.023 6.474V45.92a.551.551 0 0 0-.564-.553h-5.64a.551.551 0 0 0-.563.553v3.316c0 .31.247.552.564.552h5.639a.551.551 0 0 0 .564-.552zm-9.023-12.948v-3.315a.551.551 0 0 0-.564-.553h-5.638a.551.551 0 0 0-.564.553v3.315c0 .311.246.553.564.553h5.638a.551.551 0 0 0 .564-.553zm9.023 6.474v-3.316a.551.551 0 0 0-.564-.552h-5.64a.551.551 0 0 0-.563.552v3.316c0 .311.247.553.564.553h5.639a.551.551 0 0 0 .564-.553zm0-6.474v-3.315a.551.551 0 0 0-.564-.553h-5.64a.551.551 0 0 0-.563.553v3.315c0 .311.247.553.564.553h5.639a.551.551 0 0 0 .564-.553z"/>
    </g>
</svg>
