<svg xmlns="http://www.w3.org/2000/svg" width="24" height="24" viewBox="0 0 24 24">
    <path fill="#FF8900" fill-rule="evenodd" d="M12.053 8.768a3.24 3.24 0 0 1 2.39.993c.657.662.985 1.456.985 2.382 0 .937-.328 1.734-.985 2.39-.656.656-1.453.985-2.39.985-.926 0-1.72-.329-2.382-.985a3.24 3.24 0 0 1-.993-2.39c0-.926.33-1.72.993-2.382.662-.662 1.456-.993 2.382-.993zm0 5.625c.62 0 1.148-.223 1.582-.668.433-.446.65-.979.65-1.6 0-.621-.22-1.151-.659-1.59-.44-.44-.97-.66-1.59-.66-.622 0-1.152.22-1.592.66-.44.439-.659.969-.659 1.59 0 .621.226 1.154.677 1.6.451.445.981.668 1.59.668zM21 12.002c0 .023.003.047.009.07a.289.289 0 0 1 .009.07c0 .024-.003.05-.01.08A.407.407 0 0 0 21 12.3c-.012.012-.018.023-.018.035v.053l-.017.017v.027c0 .005-.006.014-.018.026a9.319 9.319 0 0 1-1.547 2.496 9.71 9.71 0 0 1-2.127 1.837 9.901 9.901 0 0 1-2.522 1.143A9.7 9.7 0 0 1 12 18.33a9.7 9.7 0 0 1-2.751-.395 9.901 9.901 0 0 1-2.522-1.143 9.674 9.674 0 0 1-3.691-4.333v-.053l-.01-.009c-.005-.005-.008-.014-.008-.026v-.035A.135.135 0 0 0 3 12.283a.289.289 0 0 0-.009-.07.289.289 0 0 1-.009-.07c0-.024.003-.05.01-.08A.407.407 0 0 0 3 11.984c.012-.011.018-.023.018-.035v-.053l.017-.017v-.053a9.694 9.694 0 0 1 1.573-2.505 9.978 9.978 0 0 1 2.136-1.854 9.79 9.79 0 0 1 8.042-1.151 9.445 9.445 0 0 1 2.505 1.15 9.99 9.99 0 0 1 2.11 1.855 9.461 9.461 0 0 1 1.546 2.505c.012.012.018.02.018.027v.026l.009.009c.005.006.008.014.008.026v.035c0 .012.006.03.018.053zm-9 5.203a9.01 9.01 0 0 0 2.364-.316 8.317 8.317 0 0 0 2.198-.95 8.543 8.543 0 0 0 1.88-1.582 8.376 8.376 0 0 0 1.415-2.214 8.502 8.502 0 0 0-3.278-3.806 8.394 8.394 0 0 0-2.188-.967 8.687 8.687 0 0 0-2.356-.325c-.797 0-1.585.108-2.364.325-.78.217-1.515.54-2.206.967a8.84 8.84 0 0 0-1.899 1.59 8.255 8.255 0 0 0-1.423 2.216c.375.843.85 1.582 1.423 2.214a8.723 8.723 0 0 0 1.89 1.582 8.344 8.344 0 0 0 2.189.95c.773.21 1.558.316 2.355.316z"/>
</svg>
