<svg xmlns="http://www.w3.org/2000/svg" xmlns:xlink="http://www.w3.org/1999/xlink" width="14" height="23" viewBox="0 0 14 23">
    <defs>
        <path id="b" d="M9.214.346a.588.588 0 0 1 .422.176c.117.117.176.261.176.43 0 .17-.059.314-.176.432L1.621 9.399l7.91 7.91a.575.575 0 0 1 .176.422.575.575 0 0 1-.176.422.586.586 0 0 1-.43.176.586.586 0 0 1-.432-.176L.337 9.821A.575.575 0 0 1 .162 9.4c0-.164.058-.304.175-.422L8.792.522a.611.611 0 0 1 .422-.176z"/>
        <filter id="a" width="162.2%" height="133.4%" x="-31.1%" y="-16.7%" filterUnits="objectBoundingBox">
            <feOffset in="SourceAlpha" result="shadowOffsetOuter1"/>
            <feGaussianBlur in="shadowOffsetOuter1" result="shadowBlurOuter1" stdDeviation="1"/>
            <feColorMatrix in="shadowBlurOuter1" values="0 0 0 0 0 0 0 0 0 0 0 0 0 0 0 0 0 0 0.75 0"/>
        </filter>
    </defs>
    <g fill="none" fill-rule="evenodd" transform="matrix(-1 0 0 1 12 2)">
        <use fill="#000" filter="url(#a)" xlink:href="#b"/>
        <use fill="#FFF" xlink:href="#b"/>
    </g>
</svg>
