<svg xmlns="http://www.w3.org/2000/svg" width="137" height="140" viewBox="0 0 137 140">
    <g fill="none" fill-rule="evenodd">
        <path fill="#424242" d="M136.25 78.75h-5V26.562H5V78.75H0v-52.5c0-1.25.487-2.427 1.371-3.313a4.67 4.67 0 0 1 3.317-1.375h126.875c1.249 0 2.426.488 3.312 1.372a4.661 4.661 0 0 1 1.375 3.316v52.5z"/>
        <path fill="#D0D0D0" d="M11.25 54.687H20v-8.75h-8.75zM24.375 54.687h8.75v-8.75h-8.75zM37.5 54.687h8.75v-8.75H37.5zM50.625 54.687h8.75v-8.75h-8.75zM63.75 54.687h8.75v-8.75h-8.75zM76.875 54.687h8.75v-8.75h-8.75zM90 54.687h8.75v-8.75H90zM103.125 54.687h8.75v-8.75h-8.75zM116.25 54.687H125v-8.75h-8.75zM11.25 67.812H20v-8.75h-8.75zM26.563 63.438c1.119 0 2.239.427 3.093 1.28a4.364 4.364 0 0 1 1.282 3.094v-4.374c0-1.12.427-2.239 1.281-3.095.276-.275.584-.489.905-.676v-.605h-8.75v4.98a4.373 4.373 0 0 1 2.189-.605"/>
        <path fill="#FF8900" d="M39.688 59.063v8.75a4.371 4.371 0 0 1 4.374-4.376 4.371 4.371 0 0 1 4.376 4.376h39.374v-8.75H39.688z"/>
        <path fill="#D0D0D0" d="M103.125 67.812h8.75v-8.75h-8.75zM116.25 67.812H125v-8.75h-8.75zM17.812 41.562h8.75v-8.75h-8.75zM30.938 41.562h8.75v-8.75h-8.75zM44.063 41.562h8.75v-8.75h-8.75zM57.188 41.562h8.75v-8.75h-8.75z"/>
        <path fill="#FF8900" d="M70.313 41.562h8.75v-8.75h-8.75z"/>
        <path fill="#D0D0D0" d="M83.438 41.562h8.75v-8.75h-8.75z"/>
        <path fill="#FF8900" d="M96.563 41.562h8.75v-8.75h-8.75z"/>
        <path fill="#D0D0D0" d="M109.688 41.562h8.75v-8.75h-8.75z"/>
        <path fill="#424242" d="M55.625 79.062h5.001v-5h-5.001zM65.626 79.062h4.998v-5h-4.998zM75.624 79.062h5.001v-5h-5.001zM90.313 96.25h-5V63.437c0-1.833.715-3.559 2.011-4.859a6.833 6.833 0 0 1 4.864-2.016 6.83 6.83 0 0 1 4.858 2.012 6.841 6.841 0 0 1 2.016 4.863v21.875h-5V63.437c0-.5-.194-.971-.55-1.328-.706-.703-1.94-.707-2.653.004a1.865 1.865 0 0 0-.546 1.324V96.25z"/>
        <path fill="#424242" d="M107.813 85.313h-5v-7.75c0-.5-.195-.972-.552-1.329-.704-.703-1.938-.706-2.651.005a1.863 1.863 0 0 0-.547 1.323v7.75h-5v-7.75a6.83 6.83 0 0 1 2.011-4.858 6.833 6.833 0 0 1 4.864-2.016 6.83 6.83 0 0 1 4.858 2.011 6.833 6.833 0 0 1 2.016 4.864v7.75z"/>
        <path fill="#424242" d="M116.563 85.313h-5v-7.75c0-.5-.195-.972-.552-1.329-.704-.703-1.938-.706-2.651.005a1.863 1.863 0 0 0-.547 1.323v7.75h-5v-7.75a6.83 6.83 0 0 1 2.011-4.858 6.833 6.833 0 0 1 4.864-2.016 6.83 6.83 0 0 1 4.858 2.011 6.833 6.833 0 0 1 2.016 4.864v7.75z"/>
        <path fill="#424242" d="M118.75 124.688h-5v-7.017l6.562-17.5V82.563c0-.5-.195-.971-.55-1.328-.705-.703-1.94-.706-2.653.005a1.867 1.867 0 0 0-.547 1.323v2.75h-4.999v-2.75a6.83 6.83 0 0 1 2.011-4.858 6.837 6.837 0 0 1 4.864-2.016c1.833 0 3.559.713 4.859 2.011a6.832 6.832 0 0 1 2.015 4.864v18.516l-6.562 17.5v6.109zM92.5 124.688h-5v-5.558c-2.578-2.754-10.938-12.325-10.938-20.643v-8.8a6.83 6.83 0 0 1 2.012-4.858 6.841 6.841 0 0 1 4.863-2.016c1.834 0 3.56.715 4.86 2.011a6.832 6.832 0 0 1 2.015 4.864h-4.999c0-.5-.196-.972-.551-1.329-.705-.703-1.94-.706-2.653.005a1.867 1.867 0 0 0-.547 1.323v8.8c0 6.27 7.368 15.026 10.207 17.872l.73.73.001 7.599z"/>
        <path fill="#FF8900" d="M117.797 125.328a2.181 2.181 0 0 0-1.547-.64H90a2.183 2.183 0 0 0-2.187 2.187V140h30.625v-13.125c0-.56-.214-1.119-.641-1.547"/>
        <path fill="#424242" d="M120.938 140h-5v-12.813H90.311V140h-5v-13.125c0-1.25.487-2.427 1.371-3.312A4.663 4.663 0 0 1 90 122.188h26.25c1.25 0 2.427.487 3.313 1.371a4.661 4.661 0 0 1 1.374 3.316V140zM50.938 96.25h-5V67.813c0-.5-.197-.972-.552-1.329-.704-.703-1.939-.707-2.652.004a1.871 1.871 0 0 0-.547 1.325v17.499h-5V67.813c0-1.834.715-3.56 2.012-4.86a6.84 6.84 0 0 1 4.864-2.016c1.832 0 3.56.714 4.858 2.012a6.837 6.837 0 0 1 2.017 4.864V96.25z"/>
        <path fill="#424242" d="M42.188 85.313h-5V63.436c0-.5-.197-.971-.552-1.328-.705-.703-1.94-.705-2.65.003a1.864 1.864 0 0 0-.548 1.325v21.876h-5V63.436c0-1.834.715-3.56 2.013-4.86a6.833 6.833 0 0 1 4.861-2.014c1.834 0 3.56.713 4.86 2.011a6.833 6.833 0 0 1 2.016 4.864v21.874z"/>
        <path fill="#424242" d="M33.438 85.313h-5v-17.5c0-.5-.195-.972-.55-1.328-.708-.704-1.942-.707-2.653.002a1.864 1.864 0 0 0-.547 1.326v17.5h-5v-17.5c0-1.835.715-3.562 2.013-4.86a6.833 6.833 0 0 1 4.861-2.016c1.835 0 3.561.716 4.86 2.014a6.833 6.833 0 0 1 2.015 4.861v17.5z"/>
        <path fill="#424242" d="M22.5 124.688h-5v-6.11l-6.563-17.5v-28.89c0-1.835.715-3.562 2.014-4.86a6.833 6.833 0 0 1 4.862-2.016c1.834 0 3.56.716 4.859 2.014a6.83 6.83 0 0 1 2.016 4.862v13.124h-5.001V72.189c0-.5-.195-.972-.55-1.328-.707-.704-1.94-.707-2.651.002a1.864 1.864 0 0 0-.548 1.326v27.983l6.562 17.5v7.016zM48.75 124.688h-5v-7.597l.731-.732c2.839-2.846 10.206-11.602 10.206-17.872v-8.8c0-.5-.195-.971-.551-1.328-.704-.703-1.939-.706-2.652.005a1.866 1.866 0 0 0-.546 1.323h-5.001c0-1.834.715-3.56 2.012-4.858a6.841 6.841 0 0 1 4.863-2.016c1.834 0 3.56.715 4.86 2.011a6.838 6.838 0 0 1 2.016 4.864v8.799c0 8.318-8.36 17.89-10.938 20.644v5.556z"/>
        <path fill="#FF8900" d="M47.797 125.328a2.181 2.181 0 0 0-1.547-.64H20a2.185 2.185 0 0 0-2.187 2.187V140h30.625v-13.125c0-.56-.214-1.119-.641-1.547"/>
        <path fill="#424242" d="M50.938 140h-5v-12.813H20.311V140h-5v-13.125c0-1.25.488-2.427 1.371-3.312A4.663 4.663 0 0 1 20 122.188h26.25c1.25 0 2.426.487 3.313 1.371a4.661 4.661 0 0 1 1.374 3.316V140zM70.625 24.063h-5v-4.375a1.87 1.87 0 0 0-1.875-1.875H50.625a6.832 6.832 0 0 1-4.859-2.012 6.833 6.833 0 0 1-2.016-4.864c0-1.833.714-3.56 2.011-4.858a6.84 6.84 0 0 1 4.864-2.016h26.25c.5 0 .972-.195 1.328-.551.352-.353.547-.825.547-1.325V.002h5v2.186c0 1.834-.715 3.56-2.012 4.86a6.833 6.833 0 0 1-4.863 2.016h-26.25c-.5 0-.972.194-1.328.55a1.867 1.867 0 0 0-.547 1.325 1.87 1.87 0 0 0 1.875 1.874H63.75c1.833 0 3.56.715 4.859 2.013a6.838 6.838 0 0 1 2.016 4.863v4.375z"/>
    </g>
</svg>
