<svg xmlns="http://www.w3.org/2000/svg" width="48" height="42" viewBox="0 0 48 42">
    <path fill="#D0D0D0" fill-rule="evenodd" d="M45 0c.844 0 1.555.29 2.133.867C47.71 1.445 48 2.157 48 3v27.047c0 .844-.29 1.555-.867 2.133-.578.578-1.29.867-2.133.867H20.203l-8.672 8.531c-.156.156-.32.266-.492.328A1.565 1.565 0 0 1 10.5 42c-.125 0-.234-.008-.328-.023a1.85 1.85 0 0 1-.281-.07 1.446 1.446 0 0 1-.657-.563A1.56 1.56 0 0 1 9 40.5v-7.453H3c-.844 0-1.555-.29-2.133-.867C.29 31.602 0 30.89 0 30.047V3C0 2.156.29 1.445.867.867 1.445.29 2.157 0 3 0h42zm0 30.047V3H3v27.047h9v6.89l6.984-6.89H45zm-34.5-12c-.406 0-.758-.149-1.055-.445A1.442 1.442 0 0 1 9 16.547c0-.406.148-.758.445-1.055a1.442 1.442 0 0 1 1.055-.445h27c.406 0 .758.148 1.055.445.297.297.445.649.445 1.055 0 .406-.148.758-.445 1.055a1.442 1.442 0 0 1-1.055.445h-27zm0-6c-.406 0-.758-.149-1.055-.445A1.442 1.442 0 0 1 9 10.547c0-.406.148-.758.445-1.055a1.442 1.442 0 0 1 1.055-.445h27c.406 0 .758.148 1.055.445.297.297.445.649.445 1.055 0 .406-.148.758-.445 1.055a1.442 1.442 0 0 1-1.055.445h-27zm0 12c-.406 0-.758-.149-1.055-.445A1.442 1.442 0 0 1 9 22.547c0-.406.148-.758.445-1.055a1.442 1.442 0 0 1 1.055-.445h18c.406 0 .758.148 1.055.445.297.297.445.649.445 1.055 0 .406-.148.758-.445 1.055a1.442 1.442 0 0 1-1.055.445h-18z"/>
</svg>
