<svg xmlns="http://www.w3.org/2000/svg" width="24" height="21" viewBox="0 0 24 21">
    <path fill="#aaaaaa" fill-rule="evenodd" d="M22.5.375c.406 0 .758.148 1.055.445.297.297.445.649.445 1.055v17.25c0 .406-.148.758-.445 1.055a1.442 1.442 0 0 1-1.055.445h-21c-.406 0-.758-.148-1.055-.445A1.442 1.442 0 0 1 0 19.125V1.875C0 1.469.148 1.117.445.82A1.442 1.442 0 0 1 1.5.375h21zm0 18.75v-1.383l-.035-.035c-.008-.008-.02-.012-.035-.012l-4.922-5.086-2.742 2.485a.99.99 0 0 1-.551.199.557.557 0 0 1-.48-.223L7.522 8.883 1.5 14.719v4.406h21zm0-3.516V1.875h-21v10.734l5.484-5.32a.658.658 0 0 1 .258-.164.958.958 0 0 1 .305-.047c.094 0 .187.024.281.07.094.047.18.118.258.211l6.187 6.141 2.836-2.46a.69.69 0 0 1 .504-.165c.18.016.34.086.48.21L22.5 15.61zm-5.25-7.734a1.46 1.46 0 0 1-1.055-.434 1.43 1.43 0 0 1-.445-1.066c0-.406.148-.758.445-1.055a1.442 1.442 0 0 1 1.055-.445c.406 0 .758.148 1.055.445.297.297.445.649.445 1.055 0 .422-.148.777-.445 1.066a1.46 1.46 0 0 1-1.055.434z"/>
</svg>
