<svg xmlns="http://www.w3.org/2000/svg" width="103" height="105" viewBox="0 0 103 105">
    <g fill="#EEE" fill-rule="evenodd">
        <path d="M102.436 59.063h-3.759V19.92H3.759v39.142H0V19.687c0-.937.366-1.82 1.03-2.484a3.515 3.515 0 0 1 2.495-1.031h95.387a3.51 3.51 0 0 1 2.49 1.029 3.491 3.491 0 0 1 1.034 2.486v39.376z"/>
        <path d="M8.458 41.015h6.578v-6.562H8.458zM18.326 41.015h6.578v-6.562h-6.578zM28.193 41.015h6.579v-6.562h-6.579zM38.061 41.015h6.579v-6.562H38.06zM47.929 41.015h6.578v-6.562H47.93zM57.797 41.015h6.578v-6.562h-6.578zM67.664 41.015h6.579v-6.562h-6.579zM77.532 41.015h6.578v-6.562h-6.578zM87.4 41.015h6.578v-6.562H87.4zM8.458 50.859h6.578v-6.563H8.458zM19.97 47.578a3.286 3.286 0 0 1 3.29 3.281v-3.28c0-.84.32-1.68.963-2.321.207-.207.44-.367.68-.507v-.454h-6.578v3.735a3.293 3.293 0 0 1 1.645-.454M29.838 44.297v6.562c0-.839.322-1.678.963-2.32a3.29 3.29 0 0 1 2.326-.96 3.29 3.29 0 0 1 2.326.96c.642.642.964 1.481.964 2.32H66.02v-6.562H29.838zM77.532 50.859h6.578v-6.563h-6.578zM87.4 50.859h6.578v-6.563H87.4zM13.392 31.172h6.578v-6.563h-6.578zM23.26 31.172h6.578v-6.563H23.26zM33.128 31.172h6.578v-6.563h-6.578zM42.995 31.172h6.579v-6.563h-6.579zM52.863 31.172h6.579v-6.563h-6.579zM62.73 31.172h6.58v-6.563h-6.58zM72.598 31.172h6.579v-6.563h-6.579zM82.466 31.172h6.579v-6.563h-6.579zM41.82 59.297h3.76v-3.75h-3.76zM49.34 59.297h3.757v-3.75h-3.758zM56.856 59.297h3.76v-3.75h-3.76z"/>
        <path d="M67.9 72.188h-3.76v-24.61c0-1.375.538-2.67 1.513-3.645a5.144 5.144 0 0 1 3.656-1.511c1.379 0 2.676.535 3.653 1.509a5.124 5.124 0 0 1 1.516 3.647v16.406h-3.76V47.578a1.4 1.4 0 0 0-.414-.996c-.53-.528-1.458-.53-1.994.003a1.397 1.397 0 0 0-.41.993v24.61z"/>
        <path d="M81.056 63.984h-3.759v-5.812c0-.375-.147-.73-.414-.996-.53-.527-1.458-.53-1.994.003a1.396 1.396 0 0 0-.411.993v5.812h-3.76v-5.812c0-1.376.537-2.67 1.513-3.644a5.144 5.144 0 0 1 3.656-1.512c1.38 0 2.677.535 3.653 1.509a5.119 5.119 0 0 1 1.516 3.647v5.812z"/>
        <path d="M87.635 63.984h-3.76v-5.812c0-.375-.146-.73-.414-.996-.53-.527-1.458-.53-1.994.003a1.396 1.396 0 0 0-.41.993v5.812h-3.76v-5.812c0-1.376.537-2.67 1.513-3.644a5.144 5.144 0 0 1 3.656-1.512c1.379 0 2.676.535 3.653 1.509a5.119 5.119 0 0 1 1.516 3.647v5.812z"/>
        <path d="M89.28 93.516h-3.76v-5.262l4.934-13.125V61.922a1.4 1.4 0 0 0-.414-.996c-.53-.527-1.458-.53-1.995.003a1.399 1.399 0 0 0-.41.993v2.062h-3.76v-2.062c0-1.376.537-2.67 1.513-3.644a5.147 5.147 0 0 1 3.657-1.512c1.378 0 2.675.535 3.653 1.509a5.118 5.118 0 0 1 1.515 3.647v13.887l-4.934 13.125v4.582zM69.544 93.516h-3.76v-4.168c-1.938-2.066-8.223-9.245-8.223-15.483v-6.6c0-1.375.537-2.67 1.513-3.644a5.15 5.15 0 0 1 3.656-1.512c1.379 0 2.677.537 3.654 1.51a5.118 5.118 0 0 1 1.515 3.647H64.14c0-.375-.147-.73-.414-.996-.53-.528-1.458-.53-1.994.003a1.399 1.399 0 0 0-.412.993v6.599c0 4.702 5.54 11.27 7.674 13.404l.549.548v5.699z"/>
        <path d="M88.563 93.996a1.642 1.642 0 0 0-1.163-.48H67.664a1.643 1.643 0 0 0-1.644 1.64V105h23.025v-9.844c0-.42-.161-.839-.482-1.16"/>
        <path d="M90.924 105h-3.76v-9.61H67.9V105H64.14v-9.844c0-.937.366-1.82 1.03-2.484a3.51 3.51 0 0 1 2.495-1.031H87.4c.939 0 1.824.365 2.49 1.028a3.491 3.491 0 0 1 1.034 2.487V105zM38.296 72.188h-3.759V50.86c0-.375-.147-.73-.414-.997-.53-.527-1.458-.53-1.994.003a1.402 1.402 0 0 0-.411.994v13.124h-3.76V50.86c0-1.376.537-2.67 1.512-3.645a5.148 5.148 0 0 1 3.657-1.512c1.378 0 2.677.535 3.653 1.509a5.122 5.122 0 0 1 1.516 3.648v21.328z"/>
        <path d="M31.718 63.984h-3.76V47.578c0-.375-.147-.729-.414-.996-.53-.528-1.458-.529-1.993.002a1.396 1.396 0 0 0-.412.994v16.406H21.38V47.578c0-1.376.538-2.67 1.513-3.645a5.144 5.144 0 0 1 3.656-1.511c1.378 0 2.676.535 3.653 1.509a5.119 5.119 0 0 1 1.516 3.647v16.406z"/>
        <path d="M25.14 63.984h-3.76V50.86c0-.375-.147-.729-.413-.995-.532-.529-1.46-.53-1.994.002a1.396 1.396 0 0 0-.412.993v13.125H14.8V50.86c0-1.376.538-2.67 1.514-3.645a5.144 5.144 0 0 1 3.655-1.51c1.38 0 2.678.535 3.654 1.509a5.119 5.119 0 0 1 1.515 3.646v13.125z"/>
        <path d="M16.916 93.516h-3.76v-4.582L8.224 75.809V54.14c0-1.377.537-2.671 1.514-3.645a5.144 5.144 0 0 1 3.655-1.512c1.38 0 2.677.537 3.653 1.51a5.116 5.116 0 0 1 1.516 3.647v9.843h-3.76v-9.843c0-.375-.146-.73-.413-.996-.532-.528-1.459-.53-1.993.002a1.396 1.396 0 0 0-.412.994v20.988l4.933 13.125v5.262zM36.651 93.516h-3.759v-5.698l.55-.55c2.134-2.133 7.673-8.7 7.673-13.403v-6.6c0-.374-.147-.728-.414-.995-.53-.528-1.458-.53-1.994.003-.264.264-.41.618-.41.993h-3.76a5.12 5.12 0 0 1 1.512-3.645 5.15 5.15 0 0 1 3.656-1.512c1.38 0 2.677.537 3.654 1.51a5.122 5.122 0 0 1 1.516 3.647v6.599c0 6.238-6.285 13.417-8.224 15.483v4.168z"/>
        <path d="M35.935 93.996a1.642 1.642 0 0 0-1.163-.48H15.036a1.645 1.645 0 0 0-1.644 1.64V105h23.025v-9.844c0-.42-.161-.839-.482-1.16"/>
        <path d="M38.296 105h-3.759v-9.61H15.271V105h-3.759v-9.844c0-.937.366-1.82 1.031-2.484a3.51 3.51 0 0 1 2.494-1.031h19.735c.94 0 1.824.365 2.49 1.028a3.491 3.491 0 0 1 1.034 2.487V105zM53.098 18.047h-3.76v-3.281c0-.375-.147-.73-.414-.996a1.402 1.402 0 0 0-.995-.41H38.06a5.143 5.143 0 0 1-3.653-1.51 5.119 5.119 0 0 1-1.516-3.647c0-1.375.537-2.67 1.512-3.644a5.148 5.148 0 0 1 3.657-1.512h19.736a1.405 1.405 0 0 0 1.41-1.406V0h3.758v1.64a5.12 5.12 0 0 1-1.512 3.644 5.144 5.144 0 0 1-3.656 1.512H38.06a1.405 1.405 0 0 0-.995 2.402c.264.264.62.41.995.41h9.868c1.378 0 2.676.536 3.653 1.51a5.122 5.122 0 0 1 1.516 3.647v3.28z"/>
    </g>
</svg>
