<svg xmlns="http://www.w3.org/2000/svg" width="24" height="24" viewBox="0 0 24 24">
    <path fill="#FF8900" fill-rule="evenodd" d="M5.549 4.268L5.53 19.982l12.938-7.857-12.92-7.857zm0-1.125c.094 0 .193.014.299.044.105.029.199.073.28.131l12.938 7.858c.164.094.293.225.387.395.094.17.14.355.14.554 0 .2-.046.384-.14.554-.094.17-.223.301-.387.395L6.111 20.932a.888.888 0 0 1-.28.131 1.118 1.118 0 0 1-.581.01 1.034 1.034 0 0 1-.264-.106 1.123 1.123 0 0 1-.58-.984l.018-15.715a1.123 1.123 0 0 1 1.125-1.125z"/>
</svg>
