<svg xmlns="http://www.w3.org/2000/svg" width="120" height="100" viewBox="0 0 120 100">
    <g fill="none" fill-rule="evenodd">
        <path fill="#AAA" d="M88.531 48.187l-3.717-.006h18.109v-4.664a1.55 1.55 0 0 1 1.544-1.554h5.191a1.55 1.55 0 0 1 1.544 1.554v4.664h3.002c1.564 0 2.56.649 3.71 1.8 1.15 1.152 2.086 2.562 2.086 4.128v39.673c0 1.566-.575 2.994-1.725 4.145-1.15 1.152-2.507 2.073-4.071 2.073H66.546c-1.61 0-2.978-.921-4.106-2.073a5.792 5.792 0 0 1-1.69-4.145v-8.727c13.772-6.732 27.153-20.643 27.781-36.868zm17.219 42.768h4.5c.61 0 1.137-.224 1.582-.671.445-.448.668-.978.668-1.59v-4.522c0-.613-.223-1.143-.668-1.59-.445-.448-.973-.672-1.582-.672h-4.5c-.61 0-1.137.224-1.582.672-.445.447-.668.977-.668 1.59v4.522c0 .612.223 1.142.668 1.59.445.447.973.671 1.582.671zm-10.5-9.045h-4.5c-.61 0-1.137.224-1.582.672-.445.447-.668.977-.668 1.59v4.522c0 .612.223 1.142.668 1.59.445.447.973.671 1.582.671h4.5c.61 0 1.137-.224 1.582-.671.445-.448.668-.978.668-1.59v-4.522c0-.613-.223-1.143-.668-1.59-.445-.448-.973-.672-1.582-.672zm-15 0h-4.5c-.61 0-1.137.224-1.582.672-.445.447-.668.977-.668 1.59v4.522c0 .612.223 1.142.668 1.59.445.447.973.671 1.582.671h4.5c.61 0 1.137-.224 1.582-.671.445-.448.668-.978.668-1.59v-4.522c0-.613-.223-1.143-.668-1.59-.445-.448-.973-.672-1.582-.672zm15-15.074h-4.5c-.61 0-1.137.224-1.582.671-.445.448-.668.978-.668 1.59v4.522c0 .613.223 1.143.668 1.59.445.448.973.672 1.582.672h4.5c.61 0 1.137-.224 1.582-.672.445-.447.668-.977.668-1.59v-4.522c0-.612-.223-1.142-.668-1.59-.445-.447-.973-.671-1.582-.671zm10.5 9.045h4.5c.61 0 1.137-.224 1.582-.672.445-.447.668-.977.668-1.59v-4.522c0-.612-.223-1.142-.668-1.59-.445-.447-.973-.671-1.582-.671h-4.5c-.61 0-1.137.224-1.582.671-.445.448-.668.978-.668 1.59v4.522c0 .613.223 1.143.668 1.59.445.448.973.672 1.582.672z"/>
        <g>
            <path fill="#EEE" d="M17.758 74.385L5.642 76.997l3.454-10.592A40.657 40.657 0 0 1 0 40.7C0 18.223 18.132 0 40.5 0S81 18.223 81 40.701c0 22.48-18.132 40.702-40.5 40.702a40.172 40.172 0 0 1-22.742-7.018z"/>
            <ellipse cx="57.75" cy="36.933" fill="#FAFAFA" rx="5.25" ry="5.276"/>
            <ellipse cx="25.5" cy="36.933" fill="#FAFAFA" rx="5.25" ry="5.276"/>
            <path stroke="#FFF" stroke-linecap="round" stroke-width="5.66" d="M33 57.284h15"/>
        </g>
    </g>
</svg>
