<svg xmlns="http://www.w3.org/2000/svg" width="24" height="24" viewBox="0 0 24 24">
    <g fill="none" fill-rule="evenodd">
        <path fill="#C32AA3" d="M0 0h24v24H0z"/>
        <path fill="#FFF" d="M14.571 12.571A2.576 2.576 0 0 0 12 10a2.576 2.576 0 0 0-2.571 2.571A2.576 2.576 0 0 0 12 15.143a2.576 2.576 0 0 0 2.571-2.572zm1.387 0A3.952 3.952 0 0 1 12 16.53a3.952 3.952 0 0 1-3.958-3.958A3.952 3.952 0 0 1 12 8.614a3.952 3.952 0 0 1 3.958 3.957zm1.084-4.118a.922.922 0 0 1-.924.924.922.922 0 0 1-.924-.924c0-.512.412-.924.924-.924.513 0 .924.412.924.924zM12 6.243c-1.125 0-3.536-.09-4.55.312-.352.14-.613.311-.884.582a2.466 2.466 0 0 0-.583.884c-.402 1.015-.311 3.425-.311 4.55s-.09 3.536.311 4.55c.14.352.312.613.583.885.271.27.532.442.884.582 1.014.402 3.425.312 4.55.312s3.536.09 4.55-.312c.352-.14.613-.311.884-.582.271-.272.442-.533.583-.884.402-1.015.311-3.426.311-4.55 0-1.126.09-3.536-.311-4.55a2.466 2.466 0 0 0-.583-.885 2.466 2.466 0 0 0-.884-.582c-1.014-.402-3.425-.312-4.55-.312zm7.714 6.328c0 1.065.01 2.12-.05 3.185-.06 1.235-.341 2.33-1.245 3.234-.904.904-2 1.185-3.235 1.245-1.065.06-2.12.05-3.184.05-1.065 0-2.12.01-3.184-.05-1.236-.06-2.33-.341-3.235-1.245-.904-.904-1.185-1.999-1.245-3.234-.06-1.065-.05-2.12-.05-3.185 0-1.064-.01-2.119.05-3.184.06-1.235.341-2.33 1.245-3.234.904-.904 2-1.185 3.235-1.246 1.065-.06 2.12-.05 3.184-.05 1.065 0 2.12-.01 3.184.05 1.236.06 2.33.342 3.235 1.246.904.904 1.185 1.999 1.245 3.234.06 1.065.05 2.12.05 3.184z"/>
    </g>
</svg>
