<svg xmlns="http://www.w3.org/2000/svg" width="24" height="24" viewBox="0 0 24 24">
    <g fill="none" fill-rule="evenodd">
        <path fill="#00B6F1" d="M0 0h24v24H0z"/>
        <path fill="#FFF" d="M19.915 7.67a6.505 6.505 0 0 1-1.868.502 3.236 3.236 0 0 0 1.426-1.788 6.387 6.387 0 0 1-2.059.783 3.237 3.237 0 0 0-2.37-1.024 3.243 3.243 0 0 0-3.245 3.244c0 .251.03.502.08.744a9.222 9.222 0 0 1-6.69-3.396 3.22 3.22 0 0 0-.441 1.638c0 1.125.572 2.12 1.446 2.702a3.268 3.268 0 0 1-1.466-.412v.04a3.245 3.245 0 0 0 2.601 3.184 3.43 3.43 0 0 1-.854.11c-.21 0-.411-.02-.612-.05a3.25 3.25 0 0 0 3.033 2.25 6.498 6.498 0 0 1-4.028 1.387c-.27 0-.522-.01-.783-.04A9.168 9.168 0 0 0 9.067 19c5.966 0 9.231-4.942 9.231-9.231 0-.14 0-.281-.01-.422a6.975 6.975 0 0 0 1.627-1.677z"/>
    </g>
</svg>
